HIERARCHY
ROOT reference
{
  OFFSET 0 0 0
  CHANNELS 6 Xposition Yposition Zposition Zrotation Xrotation Yrotation
  JOINT Hips
  {
    OFFSET 168.712 82.6761 44.8956
    CHANNELS 6 Xposition Yposition Zposition Zrotation Xrotation Yrotation
    JOINT Spine
    {
      OFFSET 0 8.25043 0
      CHANNELS 6 Xposition Yposition Zposition Zrotation Xrotation Yrotation
      JOINT Spine1
      {
        OFFSET 0 26.9735 0
        CHANNELS 6 Xposition Yposition Zposition Zrotation Xrotation Yrotation
        JOINT Neck
        {
          OFFSET 0 26.8627 2.44206
          CHANNELS 6 Xposition Yposition Zposition Zrotation Xrotation Yrotation
          JOINT Head
          {
            OFFSET 0 14.0861 -2.0123
            CHANNELS 6 Xposition Yposition Zposition Zrotation Xrotation Yrotation
            End Site
            {
              OFFSET 0 25.1537 0
            }
          }
        }
        JOINT LeftShoulder
        {
          OFFSET 4.03461 23.8974 -0.31355
          CHANNELS 6 Xposition Yposition Zposition Zrotation Xrotation Yrotation
          JOINT LeftArm
          {
            OFFSET 14.6104 0 0
            CHANNELS 6 Xposition Yposition Zposition Zrotation Xrotation Yrotation
            JOINT LeftForeArm
            {
              OFFSET 28.8903 0 0
              CHANNELS 6 Xposition Yposition Zposition Zrotation Xrotation Yrotation
              JOINT LeftHand
              {
                OFFSET 28.8168 0 0
                CHANNELS 6 Xposition Yposition Zposition Zrotation Xrotation Yrotation
                End Site
                {
                  OFFSET 15.0922 0 0
                }
              }
            }
          }
        }
        JOINT RightShoulder
        {
          OFFSET -4.01401 23.8974 -0.31355
          CHANNELS 6 Xposition Yposition Zposition Zrotation Xrotation Yrotation
          JOINT RightArm
          {
            OFFSET -14.6104 0 0
            CHANNELS 6 Xposition Yposition Zposition Zrotation Xrotation Yrotation
            JOINT RightForeArm
            {
              OFFSET -28.8903 0 0
              CHANNELS 6 Xposition Yposition Zposition Zrotation Xrotation Yrotation
              JOINT RightHand
              {
                OFFSET -28.8168 0 0
                CHANNELS 6 Xposition Yposition Zposition Zrotation Xrotation Yrotation
                End Site
                {
                  OFFSET -15.0922 0 0
                }
              }
            }
          }
        }
      }
    }
    JOINT LeftUpLeg
    {
      OFFSET 10.0615 0 0
      CHANNELS 6 Xposition Yposition Zposition Zrotation Xrotation Yrotation
      JOINT LeftLeg
      {
        OFFSET 0 -36.0896 0
        CHANNELS 6 Xposition Yposition Zposition Zrotation Xrotation Yrotation
        JOINT LeftFoot
        {
          OFFSET 0 -47.1136 0
          CHANNELS 6 Xposition Yposition Zposition Zrotation Xrotation Yrotation
          JOINT LeftToeBase
          {
            OFFSET 0 -6.53997 15.0922
            CHANNELS 6 Xposition Yposition Zposition Zrotation Xrotation Yrotation
            End Site
            {
              OFFSET 0 0 4.0246
            }
          }
        }
      }
    }
    JOINT RightUpLeg
    {
      OFFSET -10.0615 0 0
      CHANNELS 6 Xposition Yposition Zposition Zrotation Xrotation Yrotation
      JOINT RightLeg
      {
        OFFSET 0 -36.0896 0
        CHANNELS 6 Xposition Yposition Zposition Zrotation Xrotation Yrotation
        JOINT RightFoot
        {
          OFFSET 0 -47.1136 0
          CHANNELS 6 Xposition Yposition Zposition Zrotation Xrotation Yrotation
          JOINT RightToeBase
          {
            OFFSET 0 -6.53997 15.0922
            CHANNELS 6 Xposition Yposition Zposition Zrotation Xrotation Yrotation
            End Site
            {
              OFFSET 0 0 4.0246
            }
          }
        }
      }
    }
  }
}
MOTION
Frames:	4
Frame Time:	0.004
0 0 0 0 0 -0 4.09629 81.9496 -213.542 0.135049 -1.21925 -0.815972 -4.44089e-016 8.25043 0 -1.48877 -1.35622 1.3371 4.44089e-016 26.9735 2.84217e-014 -0.281392 -4.88277 1.34273 0 26.8627 2.44206 6.22542 22.4123 9.52007 0 14.0861 -2.0123 -11.0697 5.92765 9.28396 4.03461 23.8974 -0.31355 19.8922 -0.801661 -0.017435 14.6104 0 0 -23.1227 -8.36699 1.44714 28.8903 0 -2.84217e-014 -2.01654 6.56604 3.18705 28.8168 -2.84217e-014 2.84217e-014 24.5338 7.48481 3.99766 -4.01401 23.8974 -0.31355 -15.6009 -0.709655 -0.453181 -14.6104 0 0 18.381 5.84222 2.56702 -28.8903 -2.84217e-014 0 -9.18757 0.979524 -1.2323 -28.8168 -2.84217e-014 0 -3.96461 1.13585 -7.35904 10.0615 1.42109e-014 0 9.52274 1.47763 -2.21075 3.55271e-015 -36.0896 2.84217e-014 -7.22463 16.043 -15.3237 0 -47.1136 0 8.8179 -15.7283 39.2851 0 -6.53997 15.0922 -4.96962e-017 -1.98785e-016 -6.36111e-015 -10.0615 -1.42109e-014 0 -6.01183 3.57744 7.97476 0 -36.0896 0 5.72971 8.10538 -0.572061 -1.77636e-015 -47.1136 0 -4.20565 -20.0897 -6.76779 0 -6.53997 15.0922 5.09386e-016 -1.59028e-015 -1.49089e-016 
0 0 0 0 0 -0 4.10387 81.9523 -213.542 0.134918 -1.21648 -0.886411 -4.44089e-016 8.25043 -2.84217e-014 -1.4664 -1.33287 1.35091 4.44089e-016 26.9735 0 -0.298814 -4.89948 1.35516 0 26.8627 2.44206 6.21409 22.3937 9.53121 0 14.0861 -2.0123 -11.0662 5.9448 9.29579 4.03461 23.8974 -0.31355 19.8868 -0.825109 0.00471895 14.6104 0 0 -23.122 -8.36571 1.43868 28.8903 0 0 -2.01408 6.57658 3.18756 28.8168 0 2.84217e-014 24.5714 7.51051 4.0621 -4.01401 23.8974 -0.31355 -15.6155 -0.717743 -0.441838 -14.6104 0 -2.84217e-014 18.3809 5.85181 2.57838 -28.8903 2.84217e-014 0 -9.15072 1.06328 -1.22772 -28.8168 -2.84217e-014 0 -3.87676 1.21107 -7.24989 10.0615 0 -2.84217e-014 9.53384 1.50443 -2.25165 0 -36.0896 0 -7.23917 16.0362 -15.2762 -1.42109e-014 -47.1136 -2.84217e-014 8.77041 -15.762 39.2443 -1.42109e-014 -6.53997 15.0922 8.94531e-016 -9.93923e-016 -0 -10.0615 -1.42109e-014 -2.84217e-014 -6.01078 3.5672 8.00793 1.77636e-015 -36.0896 0 5.71152 8.10166 -0.544745 -1.77636e-015 -47.1136 0 -4.18917 -20.084 -6.75668 1.77636e-015 -6.53997 15.0922 4.34841e-017 0 4.96962e-017 
0 0 0 0 0 -0 4.1197 81.9554 -213.542 0.134137 -1.21322 -0.995728 -8.88178e-016 8.25043 0 -1.42882 -1.2844 1.37901 4.44089e-016 26.9735 -2.84217e-014 -0.343014 -4.9503 1.38013 0 26.8627 2.44206 6.20184 22.3881 9.54302 -1.42109e-014 14.0861 -2.0123 -11.0612 5.95327 9.30835 4.03461 23.8974 -0.31355 19.8811 -0.815966 0.0328507 14.6104 0 2.84217e-014 -23.1216 -8.36448 1.42882 28.8903 0 2.84217e-014 -2.1307 6.27891 3.12252 28.8168 0 -2.84217e-014 25.5657 7.29529 4.25299 -4.01401 23.8974 -0.31355 -15.6217 -0.753306 -0.377099 -14.6104 -2.84217e-014 0 18.3949 5.93287 2.51321 -28.8903 2.84217e-014 0 -9.17627 1.00538 -1.19312 -28.8168 0 0 -3.80114 1.14969 -7.21342 10.0615 0 2.84217e-014 9.5286 1.5261 -2.27647 0 -36.0896 0 -7.24371 16.0404 -15.2613 0 -47.1136 -5.68434e-014 8.72557 -15.7966 39.2268 -1.42109e-014 -6.53997 15.0922 -6.4605e-016 -7.95139e-016 -3.18055e-015 -10.0615 0 0 -6.02984 3.52112 8.03998 3.55271e-015 -36.0896 -2.84217e-014 5.70327 8.12966 -0.489155 3.55271e-015 -47.1136 0 -4.20643 -20.0835 -6.74995 0 -6.53997 15.0922 -1.67725e-016 -3.18055e-015 -1.98785e-016 
0 0 0 0 0 -0 4.1283 81.9582 -213.542 0.134371 -1.19185 -1.0749 -8.88178e-016 8.25043 0 -1.41196 -1.27851 1.39246 0 26.9735 2.84217e-014 -0.351632 -4.97192 1.39286 0 26.8627 2.44206 6.20328 22.3913 9.56002 0 14.0861 -2.0123 -11.0923 5.94034 9.32236 4.03461 23.8974 -0.31355 19.8743 -0.749158 0.0897517 14.6104 2.84217e-014 0 -23.1289 -8.47782 1.34564 28.8903 -5.68434e-014 -2.84217e-014 -2.07239 6.23153 3.06819 28.8168 2.84217e-014 0 25.3955 7.29881 4.52115 -4.01401 23.8974 -0.31355 -15.6323 -0.767113 -0.351029 -14.6104 -2.84217e-014 5.68434e-014 18.3902 5.99909 2.5069 -28.8903 0 2.84217e-014 -9.2001 0.958449 -1.17956 -28.8168 -2.84217e-014 2.84217e-014 -3.66625 1.09347 -7.16304 10.0615 0 0 9.5401 1.53488 -2.32089 1.77636e-015 -36.0896 2.84217e-014 -7.26037 16.0322 -15.2315 0 -47.1136 2.84217e-014 8.66403 -15.8209 39.1949 0 -6.53997 15.0922 3.47873e-016 -9.93923e-016 -6.36111e-015 -10.0615 0 0 -6.03438 3.48738 8.08776 -1.77636e-015 -36.0896 2.84217e-014 5.69122 8.12884 -0.460163 0 -47.1136 -2.84217e-014 -4.17584 -20.066 -6.74463 -1.77636e-015 -6.53997 15.0922 1.92573e-016 0 -3.97569e-016 
